<svg fill="none" height="49" viewBox="0 0 48 49" width="48" xmlns="http://www.w3.org/2000/svg"><path d="m4.56198 39.815c.17734 1.7172 1.30323 3.0765 2.99177 3.436 2.66525.5674 7.68945 1.249 16.44625 1.249s13.781-.6816 16.4463-1.249c1.6885-.3595 2.8144-1.7188 2.9917-3.436.263-2.5462.562-7.2211.562-15.315s-.299-12.7688-.562-15.31498c-.1773-1.71725-1.3032-3.07654-2.9918-3.43601-2.6652-.56739-7.6894-1.24901-16.4462-1.24901s-13.781.68162-16.44625 1.24901c-1.68854.35947-2.81443 1.71876-2.99177 3.43601-.26294 2.54618-.56198 7.22108-.56198 15.31498s.29904 12.7688.56198 15.315z" fill="#a6cfff"/><path d="m27.8763 28.2117c2.6496-1.3952 4.4562-4.1758 4.4562-7.3784 0-4.6023-3.731-8.3333-8.3334-8.3333-4.6023 0-8.3333 3.731-8.3333 8.3333 0 3.2027 1.8067 5.9835 4.4565 7.3786-3.5485 1.352-6.258 4.5065-7.0973 8.3939-.1161.538.1799 1.0903.7218 1.1884 1.9448.3519 5.1655.7058 10.2544.7058 5.0888 0 8.3095-.3539 10.2543-.7058.5399-.0977.8352-.6479.7196-1.184-.8382-3.8896-3.5486-7.0461-7.0988-8.3985z" fill="#1575e5"/></svg>